<?xml version="1.0" encoding="UTF-8" standalone="no"?><!DOCTYPE svg PUBLIC "-//W3C//DTD SVG 1.1//EN" "http://www.w3.org/Graphics/SVG/1.1/DTD/svg11.dtd"><svg width="100%" height="100%" viewBox="0 0 464 61" version="1.1" xmlns="http://www.w3.org/2000/svg" xmlns:xlink="http://www.w3.org/1999/xlink" xml:space="preserve" xmlns:serif="http://www.serif.com/" style="fill-rule:evenodd;clip-rule:evenodd;stroke-linejoin:round;stroke-miterlimit:2;"><g transform="matrix(1.57056,0,0,1.57056,-430.617,-501.454)"><g transform="matrix(44.57,0,0,44.57,301.973,354.574)"><path d="M0.114,-0l0.184,-0l0.062,-0.546l0.002,-0l0.062,0.546l0.184,-0l0.11,-0.714l-0.151,0l-0.057,0.559l-0.002,0l-0.065,-0.559l-0.164,0l-0.063,0.558l-0.002,0l-0.059,-0.558l-0.151,0l0.11,0.714Z" style="fill:#b91024;fill-rule:nonzero;"/></g><g transform="matrix(44.57,0,0,44.57,331.701,354.574)"><path d="M0.156,-0l0.015,-0.126l0.101,-0l0.017,0.126l0.151,-0l-0.121,-0.714l-0.194,0l-0.121,0.714l0.152,-0Zm0.067,-0.594l0.002,-0l0.031,0.338l-0.07,0l0.037,-0.338Z" style="fill:#b91024;fill-rule:nonzero;"/></g><g transform="matrix(44.57,0,0,44.57,351.49,354.574)"><path d="M0.044,-0l0.146,-0l-0,-0.308l0.084,-0l0,0.308l0.146,-0l-0,-0.714l-0.146,0l0,0.276l-0.084,0l-0,-0.276l-0.146,0l0,0.714Z" style="fill:#b91024;fill-rule:nonzero;"/></g><g transform="matrix(44.57,0,0,44.57,372.126,354.574)"><path d="M0.344,-0l-0,-0.13l-0.154,0l-0,-0.584l-0.146,0l0,0.714l0.3,-0Z" style="fill:#b91024;fill-rule:nonzero;"/></g><g transform="matrix(44.57,0,0,44.57,387.814,354.574)"><path d="M0.19,-0.714l-0.146,0l0,0.714l0.146,-0l-0,-0.352l0.002,-0l0.115,0.352l0.154,-0l-0.127,-0.364l0.124,-0.35l-0.154,0l-0.112,0.338l-0.002,0l-0,-0.338Z" style="fill:#b91024;fill-rule:nonzero;"/></g><g transform="matrix(44.57,0,0,44.57,408.45,354.574)"><path d="M0.19,-0l-0,-0.308l0.037,-0c0.03,-0 0.047,0.012 0.047,0.036l0,0.243c0,0.008 0.003,0.018 0.009,0.029l0.147,-0c-0.01,-0.011 -0.01,-0.023 -0.01,-0.078l-0,-0.155c-0,-0.091 -0.028,-0.131 -0.088,-0.141l0,-0.002c0.066,-0.01 0.084,-0.064 0.084,-0.107l-0,-0.085c-0,-0.114 -0.057,-0.146 -0.185,-0.146l-0.187,0l0,0.714l0.146,-0Zm-0,-0.584l0.037,-0c0.035,-0 0.043,0.014 0.043,0.073c0,0.063 -0.012,0.073 -0.043,0.073l-0.037,0l-0,-0.146Z" style="fill:#b91024;fill-rule:nonzero;"/></g><g transform="matrix(44.57,0,0,44.57,428.239,354.574)"><path d="M0.044,-0l0.3,-0l-0,-0.13l-0.154,0l-0,-0.178l0.147,-0l-0,-0.13l-0.147,0l-0,-0.146l0.154,-0l-0,-0.13l-0.3,0l0,0.714Z" style="fill:#b91024;fill-rule:nonzero;"/></g><g transform="matrix(44.57,0,0,44.57,444.73,354.574)"><rect x="0.048" y="-0.714" width="0.146" height="0.714" style="fill:#b91024;fill-rule:nonzero;"/></g><g transform="matrix(44.57,0,0,44.57,455.472,354.574)"><path d="M0.388,-0.499l-0,-0.056c-0,-0.127 -0.06,-0.173 -0.184,-0.173c-0.14,0 -0.188,0.054 -0.188,0.182c0,0.238 0.229,0.223 0.23,0.371c0,0.042 -0.012,0.059 -0.042,0.059c-0.029,0 -0.042,-0.018 -0.042,-0.059l-0,-0.05l-0.146,0l0,0.067c0,0.132 0.054,0.172 0.187,0.172c0.143,-0 0.189,-0.046 0.189,-0.195c-0,-0.233 -0.23,-0.233 -0.23,-0.358c-0,-0.042 0.012,-0.059 0.042,-0.059c0.029,-0 0.042,0.018 0.042,0.059l0,0.04l0.142,-0Z" style="fill:#b91024;fill-rule:nonzero;"/></g><g transform="matrix(44.57,0,0,44.57,473.612,354.574)"><path d="M0.388,-0.499l-0,-0.056c-0,-0.127 -0.06,-0.173 -0.184,-0.173c-0.14,0 -0.188,0.054 -0.188,0.182c0,0.238 0.229,0.223 0.23,0.371c0,0.042 -0.012,0.059 -0.042,0.059c-0.029,0 -0.042,-0.018 -0.042,-0.059l-0,-0.05l-0.146,0l0,0.067c0,0.132 0.054,0.172 0.187,0.172c0.143,-0 0.189,-0.046 0.189,-0.195c-0,-0.233 -0.23,-0.233 -0.23,-0.358c-0,-0.042 0.012,-0.059 0.042,-0.059c0.029,-0 0.042,0.018 0.042,0.059l0,0.04l0.142,-0Z" style="fill:#b91024;fill-rule:nonzero;"/></g><g transform="matrix(44.57,0,0,44.57,491.751,354.574)"><path d="M0.41,-0.714l-0.146,0l0,0.538c0,0.05 -0.012,0.06 -0.042,0.06c-0.03,0 -0.042,-0.01 -0.042,-0.06l-0,-0.538l-0.146,0l0,0.56c0,0.134 0.06,0.168 0.188,0.168c0.128,-0 0.188,-0.034 0.188,-0.168l-0,-0.56Z" style="fill:#b91024;fill-rule:nonzero;"/></g><g transform="matrix(44.57,0,0,44.57,511.541,354.574)"><path d="M0.034,-0.154c0,0.118 0.051,0.168 0.184,0.168c0.133,-0 0.184,-0.05 0.184,-0.168l-0,-0.126l-0.146,0l0,0.132c0,0.021 -0.018,0.032 -0.038,0.032c-0.026,0 -0.038,-0.011 -0.038,-0.05l-0,-0.382c-0,-0.039 0.012,-0.05 0.038,-0.05c0.02,-0 0.038,0.011 0.038,0.032l0,0.107l0.146,-0l-0,-0.101c-0,-0.118 -0.051,-0.168 -0.184,-0.168c-0.133,0 -0.184,0.05 -0.184,0.168l0,0.406Z" style="fill:#b91024;fill-rule:nonzero;"/></g><g transform="matrix(44.57,0,0,44.57,530.527,354.574)"><path d="M0.044,-0l0.146,-0l-0,-0.308l0.084,-0l0,0.308l0.146,-0l-0,-0.714l-0.146,0l0,0.276l-0.084,0l-0,-0.276l-0.146,0l0,0.714Z" style="fill:#b91024;fill-rule:nonzero;"/></g><g transform="matrix(44.57,0,0,44.57,551.163,354.574)"><path d="M0.044,-0l0.3,-0l-0,-0.13l-0.154,0l-0,-0.178l0.147,-0l-0,-0.13l-0.147,0l-0,-0.146l0.154,-0l-0,-0.13l-0.3,0l0,0.714Z" style="fill:#b91024;fill-rule:nonzero;"/></g><path d="M311.595,336.314l-1.568,-14.833l-9.361,-0l5.297,34.364l10.429,-0l1.67,-14.714l1.671,14.714l10.43,-0l5.295,-34.364l-9.364,-0l-1.515,14.857l-1.728,-14.857l-9.581,-0l-1.675,14.833Zm-4.539,18.257l8.199,0l2.763,-24.335l0.089,0l2.763,24.335l8.201,0l4.903,-31.817l-6.73,0l-2.541,24.915l-0.089,-0l-2.897,-24.915l-7.309,0l-2.808,24.87l-0.089,0l-2.63,-24.87l-6.73,0l4.905,31.817Z" style="fill:#fcfdfc;"/><path d="M330.374,355.845l9.411,-0l0.669,-5.616c-0,0 2.256,0 2.256,0c-0,0 0.757,5.616 0.757,5.616l9.349,-0l-5.823,-34.364l-10.796,-0l-5.823,34.364Zm8.28,-1.274l0.669,-5.615l4.5,-0l0.758,5.615l6.728,0l-5.392,-31.817l-8.644,0l-5.391,31.817l6.772,0Zm2.986,-26.474l0.089,-0l1.382,15.07l-3.12,0l1.649,-15.07Zm-0.063,12.285l-0.166,1.512c0,-0 0.304,-0 0.304,-0l-0.138,-1.512Z" style="fill:#fcfdfc;"/><path d="M352.18,321.481l0,34.364l9.049,-0l-0,-13.728c-0,0 1.202,0 1.202,0c0,0 0,13.728 0,13.728l9.049,-0l-0,-34.364l-9.049,-0l0,12.301c0,-0 -1.202,-0 -1.202,-0c-0,-0 -0,-12.301 -0,-12.301l-9.049,-0Zm1.274,33.09l6.501,0l0,-13.727l3.75,-0l-0,13.727l6.501,0l0,-31.817l-6.501,0l-0,12.301l-3.75,0l0,-12.301l-6.501,0l-0,31.817Z" style="fill:#fcfdfc;"/><path d="M372.816,355.845l15.912,-0l0,-8.336l-6.863,0c-0,0 -0,-26.028 -0,-26.028l-9.049,-0l0,34.364Zm14.639,-1.274l-0,-5.788l-6.864,-0l0,-26.029l-6.501,0l-0,31.817l13.365,0Z" style="fill:#fcfdfc;"/><path d="M397.553,330.196l0,-8.715l-9.048,-0l-0,34.364l9.048,-0l0,-9.237l3.018,9.237l9.58,-0l-6.103,-17.491c-0,-0 5.979,-16.873 5.979,-16.873l-9.586,-0l-2.888,8.715Zm-1.273,-7.442l-6.502,0l0,31.817l6.502,0l-0,-15.688l0.089,-0l5.126,15.688l6.863,0l-5.66,-16.22l5.527,-15.597l-6.864,0l-4.992,15.065l-0.089,-0l-0,-15.065Z" style="fill:#fcfdfc;"/><path d="M426.281,337.864c1.485,-1.241 1.981,-3.16 1.981,-4.816l0,-3.792c0,-2.413 -0.548,-4.112 -1.561,-5.306c-1.465,-1.726 -4.034,-2.469 -7.955,-2.469c-0,-0 -9.605,-0 -9.605,-0l-0,34.364l9.048,-0l0,-13.728c0,0 0.378,0 0.378,0c0.451,0 0.825,-0.028 0.825,0.331l-0,10.831c-0,0.522 0.165,1.184 0.556,1.902l0.362,0.664l7.303,-0l0.942,-2.13c-0.107,-0.118 -0.071,-0.261 -0.088,-0.553c-0.028,-0.47 -0.027,-1.121 -0.027,-2.067c0,-0 0,-6.908 0,-6.908c0,-2.867 -0.626,-4.741 -1.729,-5.917c-0.136,-0.145 -0.279,-0.28 -0.43,-0.406Zm-9.365,16.707l-0,-13.727l1.651,-0c1.339,-0 2.098,0.535 2.098,1.604l0,10.831c0,0.356 0.134,0.802 0.401,1.292l6.547,0c-0.446,-0.49 -0.446,-1.025 -0.446,-3.476l-0,-6.908c-0,-4.056 -1.247,-5.837 -3.919,-6.282l0,-0.089c2.939,-0.445 3.741,-2.85 3.741,-4.768l-0,-3.792c-0,-5.077 -2.539,-6.502 -8.243,-6.502l-8.332,0l0,31.817l6.502,0Zm-0,-26.028l1.651,-0c1.563,-0 1.92,0.624 1.92,3.256c-0,2.81 -0.536,3.256 -1.92,3.256l-1.651,0l-0,-6.512Zm2.11,1.318c0.023,0.065 0.07,0.203 0.09,0.308c0.076,0.407 0.097,0.94 0.097,1.63c0,0.917 -0.181,1.771 -0.221,1.946c-0.085,0.012 -0.282,0.037 -0.425,0.037l-0.378,-0l0,-3.966l0.378,0c0.161,0 0.374,0.032 0.459,0.045Z" style="fill:#fcfdfc;"/><path d="M428.93,321.481l-0,34.364l15.912,-0l-0,-8.336l-6.864,0c0,0 0,-5.392 0,-5.392c0,0 6.552,0 6.552,0l0,-8.335l-6.552,-0c0,-0 0,-3.966 0,-3.966c0,0 6.864,0 6.864,0l-0,-8.335l-15.912,-0Zm1.273,33.09l13.366,0l-0,-5.788l-6.864,-0l-0,-7.939l6.552,-0l-0,-5.789l-6.552,0l-0,-6.512l6.864,-0l-0,-5.789l-13.366,0l0,31.817Z" style="fill:#fcfdfc;"/><path d="M445.599,355.845l9.048,-0l0,-34.364l-9.048,-0l-0,34.364Zm7.775,-1.274l-0,-31.817l-6.502,0l0,31.817l6.502,0Z" style="fill:#fcfdfc;"/><path d="M463.383,343.274l-8.469,0l0,4.26c0,3.424 0.813,5.618 2.376,6.992c1.524,1.34 3.864,1.943 7.229,1.943c3.643,-0 6.016,-0.704 7.512,-2.238c1.485,-1.523 2.183,-3.955 2.183,-7.722c-0,-5.719 -2.795,-8.593 -5.617,-10.79c-0.972,-0.757 -1.947,-1.421 -2.77,-2.113l8.208,-0l0,-3.77c0,-3.293 -0.868,-5.503 -2.449,-6.922c-1.551,-1.392 -3.868,-2.057 -7.022,-2.057c-3.564,-0 -5.927,0.786 -7.428,2.288c-1.512,1.511 -2.222,3.813 -2.222,7.092c0,5.844 2.785,8.595 5.602,10.78c0.996,0.773 1.994,1.465 2.833,2.226l0.034,0.031Zm9.379,-10.942l-0,-2.496c-0,-5.658 -2.672,-7.706 -8.198,-7.706c-6.239,0 -8.377,2.405 -8.377,8.107c0,10.61 10.207,9.942 10.252,16.54c-0,1.872 -0.536,2.63 -1.875,2.63c-1.295,-0 -1.875,-0.803 -1.875,-2.63l0,-2.229l-6.502,-0l0,2.986c0,5.88 2.405,7.661 8.332,7.661c6.373,0 8.421,-2.048 8.421,-8.686c0,-10.387 -10.251,-10.387 -10.251,-15.96c0,-1.873 0.536,-2.63 1.875,-2.63c1.294,-0 1.875,0.802 1.875,2.63l-0,1.783l6.323,0Zm-8.799,11.52l-0,2.925c-0,0.839 0.006,1.356 0.601,1.356c0.162,0 0.298,0.02 0.388,-0.06c0.09,-0.082 0.108,-0.22 0.142,-0.386c0.051,-0.255 0.071,-0.555 0.071,-0.91c-0.01,-1.238 -0.495,-2.142 -1.202,-2.925Zm1.202,-10.846l0,-2.457c0,-0.84 -0.006,-1.357 -0.601,-1.357c-0.162,0 -0.299,-0.019 -0.388,0.061c-0.09,0.081 -0.109,0.22 -0.142,0.386c-0.051,0.255 -0.071,0.558 -0.071,0.91c-0,1.018 0.503,1.765 1.202,2.457Z" style="fill:#fcfdfc;"/><path d="M481.523,343.274l-8.469,0l-0,4.26c-0,3.424 0.813,5.618 2.376,6.992c1.524,1.34 3.864,1.943 7.229,1.943c3.643,-0 6.016,-0.704 7.512,-2.238c1.485,-1.523 2.183,-3.955 2.183,-7.722c-0,-5.719 -2.795,-8.593 -5.617,-10.79c-0.972,-0.757 -1.947,-1.421 -2.77,-2.113l8.208,-0l0,-3.77c0,-3.293 -0.868,-5.503 -2.449,-6.922c-1.551,-1.392 -3.868,-2.057 -7.022,-2.057c-3.564,-0 -5.927,0.786 -7.428,2.288c-1.512,1.511 -2.222,3.813 -2.222,7.092c-0,5.844 2.785,8.595 5.602,10.78c0.996,0.773 1.994,1.465 2.833,2.226l0.034,0.031Zm9.379,-10.942l-0,-2.496c-0,-5.658 -2.672,-7.706 -8.198,-7.706c-6.239,0 -8.377,2.405 -8.377,8.107c0,10.61 10.207,9.942 10.252,16.54c-0,1.872 -0.536,2.63 -1.875,2.63c-1.295,-0 -1.875,-0.803 -1.875,-2.63l0,-2.229l-6.502,-0l0,2.986c0,5.88 2.405,7.661 8.332,7.661c6.373,0 8.421,-2.048 8.421,-8.686c0,-10.387 -10.251,-10.387 -10.251,-15.96c0,-1.873 0.536,-2.63 1.875,-2.63c1.294,-0 1.875,0.802 1.875,2.63l-0,1.783l6.323,0Zm-8.8,11.52l0,2.925c0,0.839 0.007,1.356 0.602,1.356c0.162,0 0.298,0.02 0.388,-0.06c0.09,-0.082 0.108,-0.22 0.142,-0.386c0.051,-0.255 0.071,-0.555 0.071,-0.91c-0.01,-1.238 -0.495,-2.142 -1.203,-2.925Zm1.203,-10.846l0,-2.457c0,-0.84 -0.006,-1.357 -0.601,-1.357c-0.162,0 -0.299,-0.019 -0.388,0.061c-0.091,0.081 -0.109,0.22 -0.142,0.386c-0.051,0.255 -0.072,0.558 -0.072,0.91c0,1.018 0.504,1.765 1.203,2.457Z" style="fill:#fcfdfc;"/><path d="M502.091,348.091c-0.084,0.013 -0.294,0.042 -0.445,0.042c-0.151,0 -0.361,-0.029 -0.445,-0.042c-0.021,-0.055 -0.059,-0.164 -0.076,-0.25c-0.058,-0.29 -0.08,-0.654 -0.08,-1.108c-0,-0 -0,-25.252 -0,-25.252l-9.049,-0l0,26.232c0,3.498 0.9,5.649 2.519,6.967c1.561,1.271 3.906,1.789 7.131,1.789c3.225,-0 5.57,-0.518 7.131,-1.789c1.619,-1.318 2.519,-3.469 2.519,-6.967l-0,-26.232l-9.049,-0l0,25.252c0,0.454 -0.021,0.818 -0.079,1.108c-0.018,0.086 -0.056,0.195 -0.077,0.25Zm7.931,-25.337l-6.501,0l-0,23.979c-0,2.228 -0.536,2.674 -1.875,2.674c-1.339,-0 -1.875,-0.446 -1.875,-2.674l0,-23.979l-6.501,0l-0,24.959c-0,5.968 2.672,7.482 8.376,7.482c5.704,0 8.376,-1.514 8.376,-7.482l0,-24.959Z" style="fill:#fcfdfc;"/><path d="M520.948,348.102c-0.019,-0.051 -0.05,-0.145 -0.063,-0.217c-0.037,-0.197 -0.051,-0.432 -0.051,-0.707l-0,-17.03c-0,-0.276 0.014,-0.51 0.051,-0.708c0.013,-0.072 0.044,-0.165 0.063,-0.217c0.068,-0.011 0.208,-0.031 0.309,-0.031c0.11,0 0.218,0.015 0.313,0.05c0.051,0.019 0.11,0.042 0.11,0.103l-0,6.044l9.048,-0l0,-5.776c0,-3.072 -0.754,-5.228 -2.284,-6.646c-1.493,-1.385 -3.806,-2.11 -7.187,-2.11c-3.382,-0 -5.695,0.725 -7.188,2.11c-1.529,1.418 -2.284,3.574 -2.284,6.646l0,18.1c0,3.072 0.755,5.227 2.284,6.646c1.493,1.385 3.806,2.11 7.188,2.11c3.381,-0 5.694,-0.725 7.187,-2.11c1.53,-1.419 2.284,-3.574 2.284,-6.646c0,-0 0,-6.891 0,-6.891l-9.048,0l-0,7.158c-0,0.062 -0.059,0.084 -0.11,0.103c-0.095,0.036 -0.203,0.05 -0.313,0.05c-0.101,0 -0.241,-0.02 -0.309,-0.031Zm-7.889,-0.389c-0,5.256 2.271,7.482 8.198,7.482c5.927,0 8.198,-2.226 8.198,-7.482l-0,-5.617l-6.502,-0l0,5.884c0,0.936 -0.803,1.427 -1.696,1.427c-1.161,-0 -1.697,-0.491 -1.697,-2.229l0,-17.03c0,-1.739 0.536,-2.229 1.697,-2.229c0.893,-0 1.696,0.49 1.696,1.426l0,4.77l6.502,0l-0,-4.502c-0,-5.257 -2.271,-7.483 -8.198,-7.483c-5.927,0 -8.198,2.226 -8.198,7.483l-0,18.1Z" style="fill:#fcfdfc;"/><path d="M531.218,321.481l-0,34.364l9.048,-0l0,-13.728c0,0 1.203,0 1.203,0c-0,0 -0,13.728 -0,13.728l9.048,-0l0,-34.364l-9.048,-0l-0,12.301c-0,-0 -1.203,-0 -1.203,-0c0,-0 0,-12.301 0,-12.301l-9.048,-0Zm1.273,33.09l6.502,0l-0,-13.727l3.749,-0l0,13.727l6.502,0l-0,-31.817l-6.502,0l0,12.301l-3.749,0l-0,-12.301l-6.502,0l0,31.817Z" style="fill:#fcfdfc;"/><path d="M551.854,321.481l-0,34.364l15.912,-0l-0,-8.336l-6.864,0c0,0 0,-5.392 0,-5.392c0,0 6.552,0 6.552,0l-0,-8.335l-6.552,-0c0,-0 0,-3.966 0,-3.966c0,0 6.864,0 6.864,0l-0,-8.335l-15.912,-0Zm1.273,33.09l13.366,0l-0,-5.788l-6.864,-0l-0,-7.939l6.552,-0l-0,-5.789l-6.552,0l-0,-6.512l6.864,-0l-0,-5.789l-13.366,0l0,31.817Z" style="fill:#fcfdfc;"/></g><g transform="matrix(0.24,0,0,0.24,-40.3187,-208.29)"><g transform="matrix(145.833,0,0,145.833,174.745,990.625)"><path d="M0.044,-0l0.18,-0c0.128,-0 0.188,-0.034 0.188,-0.168l-0,-0.378c-0,-0.134 -0.06,-0.168 -0.188,-0.168l-0.18,0l0,0.714Zm0.146,-0.584l0.034,-0c0.03,-0 0.042,0.014 0.042,0.062l0,0.33c0,0.048 -0.012,0.062 -0.042,0.062l-0.034,0l-0,-0.454Z" style="fill-rule:nonzero;"/></g><g transform="matrix(145.833,0,0,145.833,239.495,990.625)"><path d="M0.04,-0.516l0,0.516l0.142,-0l-0,-0.516l-0.142,0Zm0.136,-0.062l-0,-0.136l-0.13,0l0,0.136l0.13,-0Z" style="fill-rule:nonzero;"/></g><g transform="matrix(145.833,0,0,145.833,271.87,990.625)"><path d="M0.378,-0.224l-0,-0.133c-0,-0.118 -0.044,-0.173 -0.174,-0.173c-0.13,0 -0.174,0.055 -0.174,0.173l0,0.231c0,0.092 0.053,0.14 0.174,0.14c0.121,-0 0.174,-0.048 0.174,-0.14l-0,-0.046l-0.13,0l0,0.028c0,0.034 -0.015,0.046 -0.038,0.046c-0.022,0 -0.038,-0.012 -0.038,-0.046l-0,-0.08l0.206,-0Zm-0.206,-0.098l-0,-0.047c-0,-0.033 0.015,-0.049 0.038,-0.049c0.023,-0 0.038,0.016 0.038,0.049l0,0.047l-0.076,0Z" style="fill-rule:nonzero;"/></g><path d="M177.004,882.342l0,112.44l30.407,0c10.551,0 18.226,-1.693 23.335,-5.853c5.296,-4.313 8.24,-11.352 8.24,-22.797c-0,0 -0,-55.14 -0,-55.14c-0,-11.444 -2.944,-18.484 -8.24,-22.796c-5.109,-4.16 -12.784,-5.854 -23.335,-5.854c-0,0 -30.407,0 -30.407,0Zm4.167,108.274l26.24,-0c18.666,-0 27.408,-4.954 27.408,-24.484l0,-55.14c0,-19.53 -8.742,-24.483 -27.408,-24.483l-26.24,-0l-0,104.107Zm21.273,-85.167l4.967,-0c4.382,-0 6.135,2.042 6.135,9.044l-0,48.138c-0,7.002 -1.753,9.044 -6.135,9.044l-4.967,0l0,-66.226Zm4.167,4.167l0.8,-0c0.552,-0 1.015,-0.119 1.32,0.146c0.286,0.248 0.298,0.703 0.403,1.269c0.176,0.942 0.245,2.085 0.245,3.462l0,48.138c0,1.377 -0.069,2.521 -0.245,3.462c-0.105,0.566 -0.117,1.021 -0.403,1.269c-0.305,0.265 -0.768,0.147 -1.32,0.147l-0.8,-0l-0,-57.893Z" style="fill:#fcfdfc;"/><path d="M270.194,911.217l-29.023,0l-0,83.565l29.023,0l0,-83.565Zm-24.857,4.167l0,75.232l20.69,-0l0,-75.232l-20.69,-0Zm-3.291,-4.893l27.273,-0l0,-28.149l-27.273,0l-0,28.149Zm23.106,-4.167l0,-19.815l-18.94,-0l0,19.815l18.94,-0Z" style="fill:#fcfdfc;"/><path d="M331.145,973.013l0.007,-0.759l0,-33.689c0,-9.944 -2.139,-17.145 -6.73,-21.945c-4.597,-4.808 -11.834,-7.445 -22.804,-7.445c-10.967,0 -18.204,2.637 -22.801,7.445c-4.59,4.8 -6.73,12.001 -6.73,21.945l0,33.689c0,8.152 2.547,14.274 7.576,18.439c4.719,3.907 11.891,6.131 21.955,6.131c10.067,-0 17.24,-2.224 21.959,-6.131c4.872,-4.034 7.414,-9.905 7.568,-17.68Zm-4.159,-15.064l-0,-19.384c-0,-17.211 -6.411,-25.223 -25.368,-25.223c-18.953,0 -25.364,8.012 -25.364,25.223l0,33.689c0,13.408 7.722,20.403 25.364,20.403c17.646,0 25.368,-6.995 25.368,-20.403l-0,-6.704l-18.94,0l-0,4.077c-0,4.963 -2.191,6.715 -5.551,6.715c-3.214,0 -5.551,-1.752 -5.551,-6.715l0,-11.678l30.042,-0Zm-23.107,4.167l-2.768,-0l-0,7.511c-0,1.103 0.014,1.908 0.452,2.379c0.22,0.235 0.574,0.169 0.932,0.169c0.371,0 0.714,0.037 0.964,-0.144c0.135,-0.098 0.154,-0.29 0.213,-0.5c0.149,-0.527 0.207,-1.159 0.207,-1.904l0,-7.511Zm-6.935,-18.441l0,-6.863c0,-4.818 2.191,-7.155 5.551,-7.155c3.36,0 5.551,2.337 5.551,7.155l-0,6.863l-11.102,0Zm4.167,-4.166l-0,-2.697c-0,-1.752 0.162,-2.988 1.384,-2.988c1.222,-0 1.384,1.236 1.384,2.988l0,2.697l-2.768,-0Z" style="fill:#fcfdfc;"/></g></svg>