<?xml version="1.0" encoding="UTF-8" standalone="no"?>
<!DOCTYPE svg PUBLIC "-//W3C//DTD SVG 1.1//EN" "http://www.w3.org/Graphics/SVG/1.1/DTD/svg11.dtd">
<svg width="100%" height="100%" viewBox="0 0 167 229" version="1.1" xmlns="http://www.w3.org/2000/svg" xmlns:xlink="http://www.w3.org/1999/xlink" xml:space="preserve" xmlns:serif="http://www.serif.com/" style="fill-rule:evenodd;clip-rule:evenodd;stroke-linejoin:round;stroke-miterlimit:2;">
    <g transform="matrix(1,0,0,1,-803.236,-1749.52)">
        <g transform="matrix(1,0,0,1,-24.4651,1465.65)">
            <g id="Layer-1" serif:id="Layer 1" transform="matrix(1.60689,0,0,1.25571,627.377,239.503)">
                <g transform="matrix(1,0,0,1,128.768,119.334)">
                    <path d="M0,93.75L2.15,-80.25L93,-80.25L94.9,85.5L95,93.75L0,93.75ZM80.4,97.85L14.75,97.85L80.4,97.85ZM99.15,93.75L97,-80.4L97,-82.25L96.4,-83.65L93,-84L2.25,-84L-1.1,-83.65L-1.75,-82.15L-1.75,-80.4L-4,93.75C-4.5,97.15 -3.167,98.517 0,97.85L95.15,97.85C98.65,98.35 99.983,96.983 99.15,93.75" style="fill:rgb(128,128,128);"/>
                </g>
                <g transform="matrix(1,0,0,1,130.917,213.084)">
                    <path d="M0,-174L90.85,-174L92.75,-8.25L92.85,0L-2.15,0L0,-174Z" style="fill:white;"/>
                </g>
                <g transform="matrix(1,0,0,0.139832,130.917,213.084)">
                    <path d="M-1.916,-171.26L92.574,-174L92.75,-8.25L92.85,0L-2.15,0L-1.916,-171.26Z" style="fill:rgb(185,16,36);"/>
                </g>
            </g>
        </g>
        <g transform="matrix(1,0,0,1,-24.4651,1465.65)">
            <g transform="matrix(0.385654,0,0,0.30137,786.271,162.136)">
                <text x="174.745px" y="990.625px" style="font-family:'Folio-BoldCondensed', 'Folio', sans-serif;font-weight:700;font-stretch:condensed;font-size:716.667px;fill:rgb(128,128,128);">P</text>
                <path d="M321.671,823.806L335.271,823.806C401.175,823.806 439.591,811.916 460.082,782.898C474.336,762.714 480.771,733.933 480.771,693.238L480.771,595.71C480.771,555.016 474.336,526.235 460.082,506.051C439.591,477.033 401.175,465.144 335.271,465.144L195.519,465.144L195.519,1004.41L321.671,1004.41L321.671,823.806ZM310.867,809.98L335.271,809.98C437.745,809.98 469.967,784.205 469.967,693.238L469.967,595.71C469.967,504.745 437.745,478.969 335.271,478.969L206.323,478.969L206.323,990.58L310.867,990.58L310.867,809.98ZM310.867,572.047L337.425,572.047C362.547,572.047 368.29,576.348 368.29,649.494C368.29,705.429 361.112,716.903 337.425,716.903L310.867,716.903L310.867,572.047ZM321.671,585.872L337.425,585.872C340.946,585.872 344.033,585.939 346.734,586.364C348.822,586.692 350.584,586.967 351.863,588.459C354.071,591.036 354.826,595.631 355.701,602.677C357.04,613.471 357.486,628.523 357.486,649.494C357.486,665.088 356.949,676.969 355.514,685.953C354.535,692.087 353.386,696.477 351.107,699.228C348.046,702.924 343.48,703.077 337.425,703.077C337.425,703.077 321.671,703.077 321.671,703.077L321.671,585.872Z" style="fill:rgb(185,16,36);"/>
            </g>
        </g>
    </g>
</svg>
