<?xml version="1.0" encoding="UTF-8" standalone="no"?>
<!DOCTYPE svg PUBLIC "-//W3C//DTD SVG 1.1//EN" "http://www.w3.org/Graphics/SVG/1.1/DTD/svg11.dtd">
<svg width="100%" height="100%" viewBox="0 0 107 149" version="1.1" xmlns="http://www.w3.org/2000/svg" xmlns:xlink="http://www.w3.org/1999/xlink" xml:space="preserve" xmlns:serif="http://www.serif.com/" style="fill-rule:evenodd;clip-rule:evenodd;stroke-linejoin:round;stroke-miterlimit:2;">
    <g transform="matrix(1,0,0,1,-385.81,-1524.53)">
        <g transform="matrix(1,0,0,1,-24.4651,1465.65)">
            <g transform="matrix(0.385654,0,0,0.30137,346.428,-104.519)">
                <text x="174.745px" y="990.625px" style="font-family:'Folio-BoldCondensed', 'Folio', sans-serif;font-weight:700;font-stretch:condensed;font-size:566.855px;fill:rgb(128,128,128);">P</text>
                <path d="M293.216,861.568L301.715,861.568C354.767,861.568 385.616,851.619 402.111,828.259C413.701,811.847 419.058,788.492 419.058,755.404C419.058,755.404 419.058,678.263 419.058,678.263C419.058,645.175 413.701,621.82 402.111,605.408C385.616,582.049 354.767,572.1 301.715,572.1C301.715,572.1 188.918,572.1 188.918,572.1L188.918,1004.42L293.216,1004.42L293.216,861.568ZM282.412,847.742L301.715,847.742C382.767,847.742 408.254,827.355 408.254,755.404L408.254,678.263C408.254,606.313 382.767,585.926 301.715,585.926L199.722,585.926L199.722,990.589L282.412,990.589L282.412,847.742ZM282.412,659.546L303.418,659.546C323.289,659.546 327.831,662.948 327.831,720.804C327.831,765.046 322.154,774.122 303.418,774.122L282.412,774.122L282.412,659.546ZM293.216,673.372L303.418,673.372C306.099,673.372 308.45,673.416 310.506,673.739C311.631,673.916 312.627,673.859 313.316,674.663C314.787,676.379 315.061,679.535 315.643,684.227C316.69,692.659 317.027,704.42 317.027,720.804C317.027,732.89 316.626,742.1 315.514,749.063C314.856,753.178 314.219,756.194 312.69,758.04C310.628,760.53 307.498,760.296 303.418,760.296L293.216,760.296L293.216,673.372Z" style="fill:rgb(252,253,252);"/>
            </g>
        </g>
        <g transform="matrix(1,0,0,1,-24.4651,1465.65)">
            <g transform="matrix(1,0,0,1,253.82,-834.527)">
                <text x="174.745px" y="990.625px" style="font-family:'Folio-BoldCondensed', 'Folio', sans-serif;font-weight:700;font-stretch:condensed;font-size:87.5px;fill:rgb(185,16,36);">!</text>
                <path d="M194.702,975.089L196.847,923.989L175.393,923.989L177.538,975.089L176.271,975.089L176.271,994.786L195.969,994.786L195.969,975.089L194.702,975.089ZM180.438,979.255L180.438,990.619L191.802,990.619L191.802,979.255L180.438,979.255ZM192.502,928.155L179.738,928.155L181.574,971.894L190.666,971.894L192.502,928.155Z" style="fill:rgb(252,253,252);"/>
            </g>
        </g>
    </g>
</svg>
