<?xml version="1.0" encoding="UTF-8" standalone="no"?>
<!DOCTYPE svg PUBLIC "-//W3C//DTD SVG 1.1//EN"
 "http://www.w3.org/Graphics/SVG/1.1/DTD/svg11.dtd">
<!-- Generated by graphviz version 2.43.0 (0)
 -->
<!-- Pages: 1 -->
<svg width="1369pt" height="646pt"
 viewBox="0.00 0.00 1369.00 646.00" xmlns="http://www.w3.org/2000/svg" xmlns:xlink="http://www.w3.org/1999/xlink">
<g id="graph0" class="graph" transform="scale(1 1) rotate(0) translate(4 642)">
<polygon fill="white" stroke="transparent" points="-4,4 -4,-642 1365,-642 1365,4 -4,4"/>
<g id="clust1" class="cluster">
<title>cluster_Form</title>
<polygon fill="none" stroke="black" points="766,-401 766,-499 906,-499 906,-401 766,-401"/>
<text text-anchor="middle" x="836" y="-483.8" font-family="Times,serif" font-size="14.00">Form</text>
</g>
<g id="clust2" class="cluster">
<title>cluster_Controller</title>
<polygon fill="none" stroke="black" points="438,-532 438,-630 570,-630 570,-532 438,-532"/>
<text text-anchor="middle" x="504" y="-614.8" font-family="Times,serif" font-size="14.00">Controller</text>
</g>
<g id="clust3" class="cluster">
<title>cluster_Cli</title>
<polygon fill="none" stroke="black" points="231,-401 231,-499 363,-499 363,-401 231,-401"/>
<text text-anchor="middle" x="297" y="-483.8" font-family="Times,serif" font-size="14.00">Cli</text>
</g>
<g id="clust4" class="cluster">
<title>cluster_Tracking</title>
<polygon fill="none" stroke="black" points="369,-139 369,-237 473,-237 473,-139 369,-139"/>
<text text-anchor="middle" x="421" y="-221.8" font-family="Times,serif" font-size="14.00">Tracking</text>
</g>
<g id="clust5" class="cluster">
<title>cluster_Services</title>
<polygon fill="none" stroke="black" points="866,-270 866,-368 1353,-368 1353,-270 866,-270"/>
<text text-anchor="middle" x="1109.5" y="-352.8" font-family="Times,serif" font-size="14.00">Services</text>
</g>
<g id="clust6" class="cluster">
<title>cluster_Database</title>
<polygon fill="none" stroke="black" points="176,-139 176,-368 314,-368 314,-139 176,-139"/>
<text text-anchor="middle" x="245" y="-352.8" font-family="Times,serif" font-size="14.00">Database</text>
</g>
<g id="clust7" class="cluster">
<title>cluster_GeoData</title>
<polygon fill="none" stroke="black" points="912,-139 912,-237 1090,-237 1090,-139 912,-139"/>
<text text-anchor="middle" x="1001" y="-221.8" font-family="Times,serif" font-size="14.00">GeoData</text>
</g>
<g id="clust8" class="cluster">
<title>cluster_Twig_Extensions</title>
<polygon fill="none" stroke="black" points="403,-401 403,-499 587,-499 587,-401 403,-401"/>
<text text-anchor="middle" x="495" y="-483.8" font-family="Times,serif" font-size="14.00">Twig_Extensions</text>
</g>
<g id="clust9" class="cluster">
<title>cluster_Vendor</title>
<polygon fill="none" stroke="black" points="8,-8 8,-106 930,-106 930,-8 8,-8"/>
<text text-anchor="middle" x="469" y="-90.8" font-family="Times,serif" font-size="14.00">Vendor</text>
</g>
<!-- FormTypes -->
<g id="node1" class="node">
<title>FormTypes</title>
<ellipse fill="none" stroke="black" cx="836" cy="-427" rx="62.29" ry="18"/>
<text text-anchor="middle" x="836" y="-423.3" font-family="Times,serif" font-size="14.00">FormTypes</text>
</g>
<!-- Options -->
<g id="node5" class="node">
<title>Options</title>
<ellipse fill="none" stroke="black" cx="1104" cy="-296" rx="46.59" ry="18"/>
<text text-anchor="middle" x="1104" y="-292.3" font-family="Times,serif" font-size="14.00">Options</text>
</g>
<!-- FormTypes&#45;&gt;Options -->
<g id="edge24" class="edge">
<title>FormTypes&#45;&gt;Options</title>
<path fill="none" stroke="black" d="M850.14,-409.27C861.06,-397.64 877.28,-383.03 895,-376 926.86,-363.37 1018.63,-383.88 1049,-368 1067.71,-358.22 1082.02,-338.91 1091.34,-322.9"/>
<polygon fill="black" stroke="black" points="1094.51,-324.4 1096.25,-313.95 1088.37,-321.04 1094.51,-324.4"/>
<text text-anchor="middle" x="900" y="-379.8" font-family="Times,serif" font-size="14.00">8</text>
</g>
<!-- ElectionServices -->
<g id="node7" class="node">
<title>ElectionServices</title>
<ellipse fill="none" stroke="black" cx="1257" cy="-296" rx="88.28" ry="18"/>
<text text-anchor="middle" x="1257" y="-292.3" font-family="Times,serif" font-size="14.00">ElectionServices</text>
</g>
<!-- FormTypes&#45;&gt;ElectionServices -->
<g id="edge22" class="edge">
<title>FormTypes&#45;&gt;ElectionServices</title>
<path fill="none" stroke="black" d="M878.77,-413.78C895.31,-409.34 914.44,-404.55 932,-401 1032.36,-380.73 1065.21,-406.72 1160,-368 1187.1,-356.93 1213.62,-336.68 1232.06,-320.63"/>
<polygon fill="black" stroke="black" points="1234.56,-323.09 1239.69,-313.83 1229.9,-317.87 1234.56,-323.09"/>
<text text-anchor="middle" x="1143" y="-379.8" font-family="Times,serif" font-size="14.00">8</text>
</g>
<!-- Entity -->
<g id="node9" class="node">
<title>Entity</title>
<ellipse fill="none" stroke="black" cx="266" cy="-165" rx="39.79" ry="18"/>
<text text-anchor="middle" x="266" y="-161.3" font-family="Times,serif" font-size="14.00">Entity</text>
</g>
<!-- FormTypes&#45;&gt;Entity -->
<g id="edge23" class="edge">
<title>FormTypes&#45;&gt;Entity</title>
<path fill="none" stroke="black" d="M829.1,-408.85C812.87,-368.53 773.52,-271.06 772,-270 758.4,-260.54 490.44,-262 474,-260 441.98,-256.11 434.56,-251.66 403,-245 386.11,-241.44 380.8,-243.96 365,-237 337.35,-224.82 309.73,-204.13 290.72,-188.21"/>
<polygon fill="black" stroke="black" points="292.74,-185.34 282.87,-181.5 288.19,-190.66 292.74,-185.34"/>
<text text-anchor="middle" x="821.5" y="-292.3" font-family="Times,serif" font-size="14.00">52</text>
</g>
<!-- Symfony&#45;Form -->
<g id="node15" class="node">
<title>Symfony&#45;Form</title>
<ellipse fill="none" stroke="black" cx="843" cy="-34" rx="78.79" ry="18"/>
<text text-anchor="middle" x="843" y="-30.3" font-family="Times,serif" font-size="14.00">Symfony&#45;Form</text>
</g>
<!-- FormTypes&#45;&gt;Symfony&#45;Form -->
<g id="edge20" class="edge">
<title>FormTypes&#45;&gt;Symfony&#45;Form</title>
<path fill="none" stroke="black" d="M836.15,-408.95C836.83,-350.07 840.53,-157.8 860,-139 885.77,-114.11 916.29,-155.86 940,-129 963.93,-101.89 923.83,-73.33 888.16,-54.9"/>
<polygon fill="black" stroke="black" points="889.26,-51.54 878.75,-50.22 886.14,-57.81 889.26,-51.54"/>
<text text-anchor="middle" x="855" y="-248.8" font-family="Times,serif" font-size="14.00">144</text>
</g>
<!-- Symfony&#45;OptionsResolver -->
<g id="node18" class="node">
<title>Symfony&#45;OptionsResolver</title>
<ellipse fill="none" stroke="black" cx="632" cy="-296" rx="130.78" ry="18"/>
<text text-anchor="middle" x="632" y="-292.3" font-family="Times,serif" font-size="14.00">Symfony&#45;OptionsResolver</text>
</g>
<!-- FormTypes&#45;&gt;Symfony&#45;OptionsResolver -->
<g id="edge21" class="edge">
<title>FormTypes&#45;&gt;Symfony&#45;OptionsResolver</title>
<path fill="none" stroke="black" d="M804.46,-411.46C792.23,-405.51 778.25,-398.31 766,-391 729,-368.94 688.83,-340.04 662.22,-320.14"/>
<polygon fill="black" stroke="black" points="664.18,-317.23 654.08,-314.02 659.97,-322.83 664.18,-317.23"/>
<text text-anchor="middle" x="775.5" y="-379.8" font-family="Times,serif" font-size="14.00">14</text>
</g>
<!-- Controller -->
<g id="node2" class="node">
<title>Controller</title>
<ellipse fill="none" stroke="black" cx="504" cy="-558" rx="57.69" ry="18"/>
<text text-anchor="middle" x="504" y="-554.3" font-family="Times,serif" font-size="14.00">Controller</text>
</g>
<!-- Controller&#45;&gt;FormTypes -->
<g id="edge6" class="edge">
<title>Controller&#45;&gt;FormTypes</title>
<path fill="none" stroke="black" d="M538.59,-543.56C598.98,-520.1 723.6,-471.67 790.76,-445.58"/>
<polygon fill="black" stroke="black" points="792.18,-448.78 800.23,-441.9 789.65,-442.26 792.18,-448.78"/>
<text text-anchor="middle" x="639.5" y="-510.8" font-family="Times,serif" font-size="14.00">20</text>
</g>
<!-- Controller&#45;&gt;Options -->
<g id="edge3" class="edge">
<title>Controller&#45;&gt;Options</title>
<path fill="none" stroke="black" d="M562.02,-556.74C672.25,-555.14 906.63,-546.13 970,-499 1032.97,-452.17 1075.3,-366.38 1093.65,-323.24"/>
<polygon fill="black" stroke="black" points="1096.9,-324.55 1097.5,-313.98 1090.43,-321.87 1096.9,-324.55"/>
<text text-anchor="middle" x="1057" y="-423.3" font-family="Times,serif" font-size="14.00">5</text>
</g>
<!-- ImageUploader -->
<g id="node6" class="node">
<title>ImageUploader</title>
<ellipse fill="none" stroke="black" cx="957" cy="-296" rx="82.59" ry="18"/>
<text text-anchor="middle" x="957" y="-292.3" font-family="Times,serif" font-size="14.00">ImageUploader</text>
</g>
<!-- Controller&#45;&gt;ImageUploader -->
<g id="edge8" class="edge">
<title>Controller&#45;&gt;ImageUploader</title>
<path fill="none" stroke="black" d="M561.7,-556.31C661.2,-553.92 859.32,-543.53 910,-499 960.25,-454.85 962.32,-368.42 959.67,-324.31"/>
<polygon fill="black" stroke="black" points="963.15,-323.78 958.93,-314.06 956.16,-324.28 963.15,-323.78"/>
<text text-anchor="middle" x="961" y="-423.3" font-family="Times,serif" font-size="14.00">4</text>
</g>
<!-- Controller&#45;&gt;ElectionServices -->
<g id="edge2" class="edge">
<title>Controller&#45;&gt;ElectionServices</title>
<path fill="none" stroke="black" d="M562,-556.69C687.64,-555.11 980.5,-546.31 1066,-499 1145.61,-454.95 1211.54,-366.24 1240.77,-322.53"/>
<polygon fill="black" stroke="black" points="1243.71,-324.44 1246.29,-314.17 1237.86,-320.59 1243.71,-324.44"/>
<text text-anchor="middle" x="1188.5" y="-423.3" font-family="Times,serif" font-size="14.00">24</text>
</g>
<!-- Repository -->
<g id="node8" class="node">
<title>Repository</title>
<ellipse fill="none" stroke="black" cx="245" cy="-296" rx="61.19" ry="18"/>
<text text-anchor="middle" x="245" y="-292.3" font-family="Times,serif" font-size="14.00">Repository</text>
</g>
<!-- Controller&#45;&gt;Repository -->
<g id="edge5" class="edge">
<title>Controller&#45;&gt;Repository</title>
<path fill="none" stroke="black" d="M447.21,-554.19C369.89,-549.05 237.7,-535.09 208,-499 165.87,-447.82 204.46,-364.42 228.74,-322.61"/>
<polygon fill="black" stroke="black" points="231.83,-324.25 233.96,-313.87 225.83,-320.66 231.83,-324.25"/>
<text text-anchor="middle" x="217.5" y="-423.3" font-family="Times,serif" font-size="14.00">24</text>
</g>
<!-- Controller&#45;&gt;Entity -->
<g id="edge4" class="edge">
<title>Controller&#45;&gt;Entity</title>
<path fill="none" stroke="black" d="M465.17,-544.54C442.64,-535.38 415.53,-520.7 399,-499 367.29,-457.37 366.27,-317.36 344,-270 329.73,-239.66 305.76,-209.52 288.15,-189.56"/>
<polygon fill="black" stroke="black" points="290.57,-187.01 281.28,-181.91 285.36,-191.69 290.57,-187.01"/>
<text text-anchor="middle" x="377.5" y="-379.8" font-family="Times,serif" font-size="14.00">27</text>
</g>
<!-- Doctrine -->
<g id="node12" class="node">
<title>Doctrine</title>
<ellipse fill="none" stroke="black" cx="67" cy="-34" rx="50.89" ry="18"/>
<text text-anchor="middle" x="67" y="-30.3" font-family="Times,serif" font-size="14.00">Doctrine</text>
</g>
<!-- Controller&#45;&gt;Doctrine -->
<g id="edge7" class="edge">
<title>Controller&#45;&gt;Doctrine</title>
<path fill="none" stroke="black" d="M446.05,-556.37C339.05,-554.12 115.81,-544 55,-499 25.53,-477.19 13,-464.66 13,-428 13,-428 13,-428 13,-164 13,-125.51 33.71,-85.22 49.48,-60.12"/>
<polygon fill="black" stroke="black" points="52.5,-61.89 55.02,-51.59 46.63,-58.07 52.5,-61.89"/>
<text text-anchor="middle" x="18" y="-292.3" font-family="Times,serif" font-size="14.00">2</text>
</g>
<!-- Symfony&#45;Http&#45;Foundation -->
<g id="node14" class="node">
<title>Symfony&#45;Http&#45;Foundation</title>
<ellipse fill="none" stroke="black" cx="266" cy="-34" rx="130.78" ry="18"/>
<text text-anchor="middle" x="266" y="-30.3" font-family="Times,serif" font-size="14.00">Symfony&#45;Http&#45;Foundation</text>
</g>
<!-- Controller&#45;&gt;Symfony&#45;Http&#45;Foundation -->
<g id="edge1" class="edge">
<title>Controller&#45;&gt;Symfony&#45;Http&#45;Foundation</title>
<path fill="none" stroke="black" d="M446.12,-557.31C386,-555.97 289.99,-549.16 212,-522 136.63,-495.75 59,-507.81 59,-428 59,-428 59,-428 59,-164 59,-148.6 71.65,-149.41 83,-139 96.04,-127.04 99.18,-123.68 114,-114 133.39,-101.32 185.48,-74.82 223.28,-56.01"/>
<polygon fill="black" stroke="black" points="225.15,-58.99 232.55,-51.41 222.04,-52.72 225.15,-58.99"/>
<text text-anchor="middle" x="68.5" y="-292.3" font-family="Times,serif" font-size="14.00">94</text>
</g>
<!-- Command -->
<g id="node3" class="node">
<title>Command</title>
<ellipse fill="none" stroke="black" cx="297" cy="-427" rx="57.69" ry="18"/>
<text text-anchor="middle" x="297" y="-423.3" font-family="Times,serif" font-size="14.00">Command</text>
</g>
<!-- Command&#45;&gt;ElectionServices -->
<g id="edge28" class="edge">
<title>Command&#45;&gt;ElectionServices</title>
<path fill="none" stroke="black" d="M337.31,-413.95C355.91,-408.95 378.39,-403.7 399,-401 510.52,-386.41 792.76,-398.11 905,-391 967.45,-387.04 982.66,-381.51 1045,-376 1070.52,-373.75 1135.94,-376.8 1160,-368 1187.53,-357.93 1214.06,-337.53 1232.39,-321.17"/>
<polygon fill="black" stroke="black" points="1235.21,-323.33 1240.21,-313.99 1230.48,-318.18 1235.21,-323.33"/>
<text text-anchor="middle" x="1050" y="-379.8" font-family="Times,serif" font-size="14.00">2</text>
</g>
<!-- Command&#45;&gt;Repository -->
<g id="edge25" class="edge">
<title>Command&#45;&gt;Repository</title>
<path fill="none" stroke="black" d="M290.09,-408.87C281.31,-387.09 266.06,-349.24 255.75,-323.67"/>
<polygon fill="black" stroke="black" points="258.92,-322.17 251.93,-314.2 252.43,-324.78 258.92,-322.17"/>
<text text-anchor="middle" x="290.5" y="-379.8" font-family="Times,serif" font-size="14.00">10</text>
</g>
<!-- Command&#45;&gt;Entity -->
<g id="edge26" class="edge">
<title>Command&#45;&gt;Entity</title>
<path fill="none" stroke="black" d="M303.74,-409.06C307.9,-397.66 312.85,-382.18 315,-368 321.53,-324.94 324.51,-312.5 315,-270 308.61,-241.45 293.48,-211.51 281.71,-191.12"/>
<polygon fill="black" stroke="black" points="284.69,-189.28 276.58,-182.46 278.67,-192.85 284.69,-189.28"/>
<text text-anchor="middle" x="330.5" y="-292.3" font-family="Times,serif" font-size="14.00">14</text>
</g>
<!-- BrickGeo -->
<g id="node17" class="node">
<title>BrickGeo</title>
<ellipse fill="none" stroke="black" cx="693" cy="-34" rx="53.09" ry="18"/>
<text text-anchor="middle" x="693" y="-30.3" font-family="Times,serif" font-size="14.00">BrickGeo</text>
</g>
<!-- Command&#45;&gt;BrickGeo -->
<g id="edge27" class="edge">
<title>Command&#45;&gt;BrickGeo</title>
<path fill="none" stroke="black" d="M261.34,-412.64C229.29,-400.08 185.29,-381.27 172,-368 97.47,-293.57 59.43,-230.84 111,-139 121.45,-120.39 131.5,-119.94 152,-114 177.56,-106.59 606.86,-117.21 631,-106 651.41,-96.52 667.79,-76.73 678.57,-60.45"/>
<polygon fill="black" stroke="black" points="681.62,-62.18 683.98,-51.85 675.69,-58.46 681.62,-62.18"/>
<text text-anchor="middle" x="102.5" y="-248.8" font-family="Times,serif" font-size="14.00">23</text>
</g>
<!-- Matoto -->
<g id="node4" class="node">
<title>Matoto</title>
<ellipse fill="none" stroke="black" cx="421" cy="-165" rx="44.39" ry="18"/>
<text text-anchor="middle" x="421" y="-161.3" font-family="Times,serif" font-size="14.00">Matoto</text>
</g>
<!-- Twig -->
<g id="node13" class="node">
<title>Twig</title>
<ellipse fill="none" stroke="black" cx="589" cy="-34" rx="33.29" ry="18"/>
<text text-anchor="middle" x="589" y="-30.3" font-family="Times,serif" font-size="14.00">Twig</text>
</g>
<!-- Matoto&#45;&gt;Twig -->
<g id="edge31" class="edge">
<title>Matoto&#45;&gt;Twig</title>
<path fill="none" stroke="black" d="M431.94,-147.54C440.55,-136.06 453.64,-121.49 469,-114 500.32,-98.72 517.65,-124.79 547,-106 562.93,-95.8 573.6,-77.23 580.2,-61.64"/>
<polygon fill="black" stroke="black" points="583.61,-62.53 583.96,-51.94 577.08,-60 583.61,-62.53"/>
<text text-anchor="middle" x="474" y="-117.8" font-family="Times,serif" font-size="14.00">2</text>
</g>
<!-- Matoto&#45;&gt;Symfony&#45;Http&#45;Foundation -->
<g id="edge30" class="edge">
<title>Matoto&#45;&gt;Symfony&#45;Http&#45;Foundation</title>
<path fill="none" stroke="black" d="M402.3,-148.44C375.4,-126.05 325.56,-84.57 294.18,-58.45"/>
<polygon fill="black" stroke="black" points="296.16,-55.55 286.24,-51.84 291.68,-60.93 296.16,-55.55"/>
<text text-anchor="middle" x="380" y="-117.8" font-family="Times,serif" font-size="14.00">2</text>
</g>
<!-- Matoto&#45;Lib -->
<g id="node16" class="node">
<title>Matoto&#45;Lib</title>
<ellipse fill="none" stroke="black" cx="476" cy="-34" rx="61.99" ry="18"/>
<text text-anchor="middle" x="476" y="-30.3" font-family="Times,serif" font-size="14.00">Matoto&#45;Lib</text>
</g>
<!-- Matoto&#45;&gt;Matoto&#45;Lib -->
<g id="edge29" class="edge">
<title>Matoto&#45;&gt;Matoto&#45;Lib</title>
<path fill="none" stroke="black" d="M422.12,-146.93C423.17,-137.08 425.17,-124.58 429,-114 435.89,-94.99 447.47,-75.44 457.42,-60.55"/>
<polygon fill="black" stroke="black" points="460.56,-62.15 463.34,-51.93 454.79,-58.19 460.56,-62.15"/>
<text text-anchor="middle" x="434" y="-117.8" font-family="Times,serif" font-size="14.00">1</text>
</g>
<!-- ImageUploader&#45;&gt;Symfony&#45;Http&#45;Foundation -->
<g id="edge19" class="edge">
<title>ImageUploader&#45;&gt;Symfony&#45;Http&#45;Foundation</title>
<path fill="none" stroke="black" d="M947.13,-277.92C940.03,-267.05 929.52,-253.47 917,-245 896.14,-230.89 507.7,-118.95 483,-114 448.83,-107.16 438.42,-115.87 405,-106 367.18,-94.83 327.43,-73.41 300.17,-57.01"/>
<polygon fill="black" stroke="black" points="301.79,-53.89 291.43,-51.66 298.14,-59.86 301.79,-53.89"/>
<text text-anchor="middle" x="902" y="-161.3" font-family="Times,serif" font-size="14.00">4</text>
</g>
<!-- ElectionServices&#45;&gt;Repository -->
<g id="edge17" class="edge">
<title>ElectionServices&#45;&gt;Repository</title>
<path fill="none" stroke="black" d="M1240.08,-314C1222.15,-331.64 1192.05,-357.37 1160,-368 1057.91,-401.85 365.77,-386.52 320,-368 297.06,-358.72 277.18,-338.73 263.66,-322.16"/>
<polygon fill="black" stroke="black" points="266.11,-319.61 257.19,-313.88 260.59,-323.92 266.11,-319.61"/>
<text text-anchor="middle" x="595" y="-379.8" font-family="Times,serif" font-size="14.00">12</text>
</g>
<!-- ElectionServices&#45;&gt;Entity -->
<g id="edge15" class="edge">
<title>ElectionServices&#45;&gt;Entity</title>
<path fill="none" stroke="black" d="M1208.49,-280.83C1193.1,-276.78 1175.94,-272.73 1160,-270 1156.08,-269.33 878.97,-245.2 875,-245 846.7,-243.54 391.91,-245.88 365,-237 335.65,-227.31 307.55,-205.55 288.84,-188.65"/>
<polygon fill="black" stroke="black" points="291.12,-186 281.42,-181.76 286.36,-191.13 291.12,-186"/>
<text text-anchor="middle" x="1051.5" y="-248.8" font-family="Times,serif" font-size="14.00">29</text>
</g>
<!-- GeoJsonReader -->
<g id="node10" class="node">
<title>GeoJsonReader</title>
<ellipse fill="none" stroke="black" cx="1001" cy="-165" rx="81.49" ry="18"/>
<text text-anchor="middle" x="1001" y="-161.3" font-family="Times,serif" font-size="14.00">GeoJsonReader</text>
</g>
<!-- ElectionServices&#45;&gt;GeoJsonReader -->
<g id="edge18" class="edge">
<title>ElectionServices&#45;&gt;GeoJsonReader</title>
<path fill="none" stroke="black" d="M1206.88,-281.04C1191.88,-277.15 1175.34,-273.13 1160,-270 1130.93,-264.07 1120.44,-273.45 1094,-260 1062.57,-244.01 1035.37,-213.37 1018.65,-191.41"/>
<polygon fill="black" stroke="black" points="1021.32,-189.13 1012.55,-183.18 1015.69,-193.3 1021.32,-189.13"/>
<text text-anchor="middle" x="1099" y="-248.8" font-family="Times,serif" font-size="14.00">6</text>
</g>
<!-- ElectionServices&#45;&gt;BrickGeo -->
<g id="edge16" class="edge">
<title>ElectionServices&#45;&gt;BrickGeo</title>
<path fill="none" stroke="black" d="M1244.93,-277.92C1220.59,-244.93 1162.09,-172.75 1094,-139 1030.3,-107.42 1006.74,-121.14 936,-114 915.97,-111.98 773.14,-114.73 755,-106 734.84,-96.3 718.54,-76.72 707.71,-60.57"/>
<polygon fill="black" stroke="black" points="710.6,-58.59 702.28,-52.04 704.7,-62.35 710.6,-58.59"/>
<text text-anchor="middle" x="1220.5" y="-161.3" font-family="Times,serif" font-size="14.00">45</text>
</g>
<!-- Repository&#45;&gt;Entity -->
<g id="edge9" class="edge">
<title>Repository&#45;&gt;Entity</title>
<path fill="none" stroke="black" d="M241.49,-277.98C240.47,-272.29 239.5,-265.9 239,-260 236.99,-236.34 245.23,-210.47 253.13,-191.88"/>
<polygon fill="black" stroke="black" points="256.39,-193.16 257.29,-182.61 250,-190.3 256.39,-193.16"/>
<text text-anchor="middle" x="248.5" y="-248.8" font-family="Times,serif" font-size="14.00">37</text>
</g>
<!-- Repository&#45;&gt;Doctrine -->
<g id="edge10" class="edge">
<title>Repository&#45;&gt;Doctrine</title>
<path fill="none" stroke="black" d="M212.39,-280.52C193.72,-270.71 171.25,-256.05 157,-237 115.12,-181 87.27,-102.43 74.69,-61.75"/>
<polygon fill="black" stroke="black" points="78,-60.59 71.75,-52.03 71.3,-62.62 78,-60.59"/>
<text text-anchor="middle" x="166.5" y="-161.3" font-family="Times,serif" font-size="14.00">28</text>
</g>
<!-- Repository&#45;&gt;BrickGeo -->
<g id="edge11" class="edge">
<title>Repository&#45;&gt;BrickGeo</title>
<path fill="none" stroke="black" d="M230.09,-278.08C221.5,-267.17 211.54,-252.23 207,-237 194.55,-195.26 176.76,-170.35 207,-139 217.65,-127.96 467.73,-130.46 483,-129 549.27,-122.67 572.7,-138.12 631,-106 650.47,-95.27 666.74,-75.94 677.71,-60.15"/>
<polygon fill="black" stroke="black" points="680.63,-62.09 683.26,-51.82 674.8,-58.21 680.63,-62.09"/>
<text text-anchor="middle" x="212" y="-161.3" font-family="Times,serif" font-size="14.00">2</text>
</g>
<!-- Entity&#45;&gt;Repository -->
<g id="edge13" class="edge">
<title>Entity&#45;&gt;Repository</title>
<path fill="none" stroke="black" d="M265.92,-183.19C265.52,-202.2 263.9,-233.63 258,-260 257.4,-262.69 256.63,-265.46 255.78,-268.2"/>
<polygon fill="black" stroke="black" points="252.41,-267.24 252.43,-277.83 259.02,-269.54 252.41,-267.24"/>
<text text-anchor="middle" x="265" y="-248.8" font-family="Times,serif" font-size="14.00">3</text>
</g>
<!-- Entity&#45;&gt;Doctrine -->
<g id="edge12" class="edge">
<title>Entity&#45;&gt;Doctrine</title>
<path fill="none" stroke="black" d="M239.79,-151.44C231.01,-147.34 221.13,-142.86 212,-139 174.29,-123.06 159.27,-129.85 126,-106 108.8,-93.67 93.64,-75.16 83,-60.13"/>
<polygon fill="black" stroke="black" points="85.8,-58.04 77.27,-51.76 80.03,-61.99 85.8,-58.04"/>
<text text-anchor="middle" x="190.5" y="-117.8" font-family="Times,serif" font-size="14.00">10</text>
</g>
<!-- Entity&#45;&gt;Symfony&#45;Http&#45;Foundation -->
<g id="edge14" class="edge">
<title>Entity&#45;&gt;Symfony&#45;Http&#45;Foundation</title>
<path fill="none" stroke="black" d="M266,-146.87C266,-125.28 266,-87.91 266,-62.35"/>
<polygon fill="black" stroke="black" points="269.5,-62.2 266,-52.2 262.5,-62.2 269.5,-62.2"/>
<text text-anchor="middle" x="271" y="-117.8" font-family="Times,serif" font-size="14.00">4</text>
</g>
<!-- GeoJsonReader&#45;&gt;BrickGeo -->
<g id="edge32" class="edge">
<title>GeoJsonReader&#45;&gt;BrickGeo</title>
<path fill="none" stroke="black" d="M965.38,-148.63C952.75,-142.85 938.56,-135.98 926,-129 915.33,-123.07 914.6,-117.79 903,-114 871.69,-103.77 784.61,-120.43 755,-106 734.89,-96.2 718.58,-76.62 707.75,-60.51"/>
<polygon fill="black" stroke="black" points="710.64,-58.53 702.3,-51.99 704.74,-62.3 710.64,-58.53"/>
<text text-anchor="middle" x="931" y="-117.8" font-family="Times,serif" font-size="14.00">6</text>
</g>
<!-- TwigExtensions -->
<g id="node11" class="node">
<title>TwigExtensions</title>
<ellipse fill="none" stroke="black" cx="495" cy="-427" rx="84.49" ry="18"/>
<text text-anchor="middle" x="495" y="-423.3" font-family="Times,serif" font-size="14.00">TwigExtensions</text>
</g>
<!-- TwigExtensions&#45;&gt;Matoto -->
<g id="edge33" class="edge">
<title>TwigExtensions&#45;&gt;Matoto</title>
<path fill="none" stroke="black" d="M476.79,-409.05C466.62,-398.36 454.85,-383.65 449,-368 426.73,-308.44 421.93,-233.02 421.04,-193.31"/>
<polygon fill="black" stroke="black" points="424.54,-193.05 420.89,-183.1 417.54,-193.16 424.54,-193.05"/>
<text text-anchor="middle" x="454" y="-292.3" font-family="Times,serif" font-size="14.00">2</text>
</g>
<!-- TwigExtensions&#45;&gt;Options -->
<g id="edge37" class="edge">
<title>TwigExtensions&#45;&gt;Options</title>
<path fill="none" stroke="black" d="M514.02,-409.27C528.73,-397.48 550.2,-382.66 572,-376 597.35,-368.26 1025.3,-379.87 1049,-368 1068,-358.49 1082.35,-338.99 1091.63,-322.83"/>
<polygon fill="black" stroke="black" points="1094.83,-324.26 1096.5,-313.8 1088.67,-320.94 1094.83,-324.26"/>
<text text-anchor="middle" x="577" y="-379.8" font-family="Times,serif" font-size="14.00">2</text>
</g>
<!-- TwigExtensions&#45;&gt;ImageUploader -->
<g id="edge35" class="edge">
<title>TwigExtensions&#45;&gt;ImageUploader</title>
<path fill="none" stroke="black" d="M501.67,-408.85C507.15,-397.34 516.11,-383.05 529,-376 557.57,-360.37 790.49,-376.24 822,-368 859.98,-358.07 899.24,-335.83 925.57,-318.87"/>
<polygon fill="black" stroke="black" points="927.54,-321.76 933.98,-313.35 923.7,-315.91 927.54,-321.76"/>
<text text-anchor="middle" x="534" y="-379.8" font-family="Times,serif" font-size="14.00">2</text>
</g>
<!-- TwigExtensions&#45;&gt;Repository -->
<g id="edge36" class="edge">
<title>TwigExtensions&#45;&gt;Repository</title>
<path fill="none" stroke="black" d="M462.32,-410.33C450.71,-404.53 437.63,-397.72 426,-391 415.43,-384.9 414.52,-380.04 403,-376 368.02,-363.75 353.73,-383.35 320,-368 297.49,-357.76 277.46,-337.93 263.77,-321.83"/>
<polygon fill="black" stroke="black" points="266.26,-319.34 257.22,-313.82 260.84,-323.78 266.26,-319.34"/>
<text text-anchor="middle" x="431" y="-379.8" font-family="Times,serif" font-size="14.00">4</text>
</g>
<!-- TwigExtensions&#45;&gt;Twig -->
<g id="edge34" class="edge">
<title>TwigExtensions&#45;&gt;Twig</title>
<path fill="none" stroke="black" d="M492.32,-408.94C488.29,-380.02 482.15,-319.69 492,-270 507.93,-189.67 551.72,-102.33 574.62,-60.35"/>
<polygon fill="black" stroke="black" points="577.8,-61.83 579.57,-51.39 571.67,-58.45 577.8,-61.83"/>
<text text-anchor="middle" x="506.5" y="-248.8" font-family="Times,serif" font-size="14.00">18</text>
</g>
</g>
</svg>
